<svg width="31" height="32" viewBox="0 0 31 32" fill="none" xmlns="http://www.w3.org/2000/svg">
<path d="M24.4286 17.4286C24.4286 18.1317 23.846 18.7143 23.1429 18.7143H18V23.8571C18 24.5603 17.4174 25.1429 16.7143 25.1429H14.1429C13.4397 25.1429 12.8571 24.5603 12.8571 23.8571V18.7143H7.71429C7.01116 18.7143 6.42857 18.1317 6.42857 17.4286V14.8571C6.42857 14.154 7.01116 13.5714 7.71429 13.5714H12.8571V8.42857C12.8571 7.72545 13.4397 7.14286 14.1429 7.14286H16.7143C17.4174 7.14286 18 7.72545 18 8.42857V13.5714H23.1429C23.846 13.5714 24.4286 14.154 24.4286 14.8571V17.4286ZM30.8571 16.1429C30.8571 7.625 23.9464 0.714284 15.4286 0.714284C6.91071 0.714284 0 7.625 0 16.1429C0 24.6607 6.91071 31.5714 15.4286 31.5714C23.9464 31.5714 30.8571 24.6607 30.8571 16.1429Z" fill="#1A3642"/>
</svg>
