<svg width="250" height="197" viewBox="0 0 250 197" fill="none" xmlns="http://www.w3.org/2000/svg">
<path d="M175.921 87.2065C177.688 85.4394 178.571 83.3467 178.571 80.9286C178.571 78.5104 177.688 76.4178 175.921 74.6507C174.154 72.8836 172.061 72 169.643 72C153.646 72 138.858 74.3251 125.279 78.9754C111.7 83.5327 99.6094 89.7641 89.0067 97.6696C78.497 105.482 67.5688 115.666 56.2221 128.222C54.455 130.175 53.5714 132.268 53.5714 134.5C53.5714 136.918 54.455 139.011 56.2221 140.778C57.9892 142.545 60.0818 143.429 62.5 143.429C64.7321 143.429 66.8248 142.545 68.7779 140.778C71.2891 138.546 74.7303 135.244 79.1016 130.873C83.4728 126.501 86.5885 123.432 88.4487 121.665C101.19 110.132 113.653 101.948 125.837 97.1116C138.114 92.2753 152.716 89.8571 169.643 89.8571C172.061 89.8571 174.154 88.9736 175.921 87.2065ZM250 53.3058C250 62.1414 249.07 71.1164 247.21 80.231C242.932 101.064 234.329 118.875 221.401 133.663C208.566 148.451 191.964 160.914 171.596 171.051C151.693 181.096 131.324 186.118 110.491 186.118C96.7262 186.118 83.4263 183.933 70.5915 179.561C69.1964 179.096 65.1042 177.143 58.3147 173.702C51.5253 170.261 47.061 168.54 44.9219 168.54C43.4338 168.54 41.5737 170.028 39.3415 173.004C37.2024 175.981 35.1097 179.236 33.0636 182.77C31.1105 186.304 28.6923 189.56 25.8092 192.536C22.926 195.512 20.1358 197 17.4386 197C14.6484 197 12.2768 196.488 10.3237 195.465C8.37054 194.442 6.92894 193.326 5.99888 192.117C5.06882 190.908 3.81324 188.955 2.23214 186.258C2.04613 185.886 1.76711 185.374 1.39509 184.723C1.02307 184.072 0.744048 183.607 0.558036 183.328C0.46503 183.049 0.325521 182.631 0.139509 182.073C0.046503 181.422 0 180.77 0 180.119C0 176.864 1.44159 173.469 4.32478 169.935C7.20796 166.308 10.3702 163.239 13.8114 160.728C17.2526 158.217 20.4148 155.612 23.298 152.915C26.1812 150.218 27.6228 147.986 27.6228 146.219C27.6228 145.847 26.9717 144.08 25.6696 140.917C24.3676 137.755 23.6235 135.709 23.4375 134.779C22.6004 130.036 22.1819 125.199 22.1819 120.27C22.1819 109.574 24.1815 99.3437 28.1808 89.5781C32.2731 79.8125 37.8069 71.2559 44.7824 63.9085C51.8508 56.468 59.8028 50.0041 68.6384 44.5167C77.474 38.9364 86.9606 34.4721 97.0982 31.1239C102.214 29.4498 108.956 28.2872 117.327 27.6362C125.698 26.8921 134.022 26.4736 142.299 26.3806C150.67 26.1946 158.994 25.9155 167.271 25.5435C175.549 25.0785 183.129 23.9624 190.011 22.1953C196.987 20.3352 202.288 17.6845 205.915 14.2433C206.845 13.3132 208.194 11.9646 209.961 10.1975C211.821 8.33742 213.216 7.03533 214.146 6.29129C215.076 5.45423 216.332 4.52417 217.913 3.50111C219.494 2.38504 221.168 1.64099 222.935 1.26897C224.795 0.803936 226.842 0.571418 229.074 0.571418C232.701 0.571418 235.956 2.71055 238.839 6.98883C241.815 11.2671 244.048 16.4754 245.536 22.6138C247.024 28.7522 248.14 34.5186 248.884 39.9129C249.628 45.3073 250 49.7716 250 53.3058Z" fill="#B5E3C2"/>
</svg>
