<svg width="38" height="41" viewBox="0 0 38 41" fill="none" xmlns="http://www.w3.org/2000/svg">
<path d="M4.57143 35.5714V15H32.8571V35.5714H4.57143ZM12.2857 11.1429C12.2857 11.5045 12.0045 11.7857 11.6429 11.7857H10.3571C9.99554 11.7857 9.71429 11.5045 9.71429 11.1429V5.35714C9.71429 4.99553 9.99554 4.71428 10.3571 4.71428H11.6429C12.0045 4.71428 12.2857 4.99553 12.2857 5.35714V11.1429ZM27.7143 11.1429C27.7143 11.5045 27.433 11.7857 27.0714 11.7857H25.7857C25.4241 11.7857 25.1429 11.5045 25.1429 11.1429V5.35714C25.1429 4.99553 25.4241 4.71428 25.7857 4.71428H27.0714C27.433 4.71428 27.7143 4.99553 27.7143 5.35714V11.1429ZM35.4286 9.85714C35.4286 8.45089 34.2634 7.28571 32.8571 7.28571H30.2857V5.35714C30.2857 3.58928 28.8393 2.14285 27.0714 2.14285H25.7857C24.0179 2.14285 22.5714 3.58928 22.5714 5.35714V7.28571H14.8571V5.35714C14.8571 3.58928 13.4107 2.14285 11.6429 2.14285H10.3571C8.58929 2.14285 7.14286 3.58928 7.14286 5.35714V7.28571H4.57143C3.16518 7.28571 2 8.45089 2 9.85714V35.5714C2 36.9777 3.16518 38.1429 4.57143 38.1429H32.8571C34.2634 38.1429 35.4286 36.9777 35.4286 35.5714V9.85714Z" fill="#FE0760"/>
<path d="M4.57143 35.5714H2.57143V37.5714H4.57143V35.5714ZM4.57143 15V13H2.57143V15H4.57143ZM32.8571 15H34.8571V13H32.8571V15ZM32.8571 35.5714V37.5714H34.8571V35.5714H32.8571ZM30.2857 7.28571H28.2857V9.28571H30.2857V7.28571ZM22.5714 7.28571V9.28571H24.5714V7.28571H22.5714ZM14.8571 7.28571H12.8571V9.28571H14.8571V7.28571ZM7.14286 7.28571V9.28571H9.14286V7.28571H7.14286ZM6.57143 35.5714V15H2.57143V35.5714H6.57143ZM4.57143 17H32.8571V13H4.57143V17ZM30.8571 15V35.5714H34.8571V15H30.8571ZM32.8571 33.5714H4.57143V37.5714H32.8571V33.5714ZM10.2857 11.1429C10.2857 10.3999 10.8999 9.78571 11.6429 9.78571V13.7857C13.109 13.7857 14.2857 12.609 14.2857 11.1429H10.2857ZM11.6429 9.78571H10.3571V13.7857H11.6429V9.78571ZM10.3571 9.78571C11.1001 9.78571 11.7143 10.3999 11.7143 11.1429H7.71429C7.71429 12.609 8.89097 13.7857 10.3571 13.7857V9.78571ZM11.7143 11.1429V5.35714H7.71429V11.1429H11.7143ZM11.7143 5.35714C11.7143 6.1001 11.1001 6.71428 10.3571 6.71428V2.71428C8.89097 2.71428 7.71429 3.89096 7.71429 5.35714H11.7143ZM10.3571 6.71428H11.6429V2.71428H10.3571V6.71428ZM11.6429 6.71428C10.8999 6.71428 10.2857 6.1001 10.2857 5.35714H14.2857C14.2857 3.89096 13.109 2.71428 11.6429 2.71428V6.71428ZM10.2857 5.35714V11.1429H14.2857V5.35714H10.2857ZM25.7143 11.1429C25.7143 10.3999 26.3285 9.78571 27.0714 9.78571V13.7857C28.5376 13.7857 29.7143 12.609 29.7143 11.1429H25.7143ZM27.0714 9.78571H25.7857V13.7857H27.0714V9.78571ZM25.7857 9.78571C26.5287 9.78571 27.1429 10.3999 27.1429 11.1429H23.1429C23.1429 12.609 24.3195 13.7857 25.7857 13.7857V9.78571ZM27.1429 11.1429V5.35714H23.1429V11.1429H27.1429ZM27.1429 5.35714C27.1429 6.1001 26.5287 6.71428 25.7857 6.71428V2.71428C24.3195 2.71428 23.1429 3.89096 23.1429 5.35714H27.1429ZM25.7857 6.71428H27.0714V2.71428H25.7857V6.71428ZM27.0714 6.71428C26.3285 6.71428 25.7143 6.1001 25.7143 5.35714H29.7143C29.7143 3.89096 28.5376 2.71428 27.0714 2.71428V6.71428ZM25.7143 5.35714V11.1429H29.7143V5.35714H25.7143ZM37.4286 9.85714C37.4286 7.34632 35.368 5.28571 32.8571 5.28571V9.28571C33.1588 9.28571 33.4286 9.55546 33.4286 9.85714H37.4286ZM32.8571 5.28571H30.2857V9.28571H32.8571V5.28571ZM32.2857 7.28571V5.35714H28.2857V7.28571H32.2857ZM32.2857 5.35714C32.2857 2.48471 29.9439 0.142855 27.0714 0.142855V4.14285C27.7347 4.14285 28.2857 4.69385 28.2857 5.35714H32.2857ZM27.0714 0.142855H25.7857V4.14285H27.0714V0.142855ZM25.7857 0.142855C22.9133 0.142855 20.5714 2.48471 20.5714 5.35714H24.5714C24.5714 4.69385 25.1224 4.14285 25.7857 4.14285V0.142855ZM20.5714 5.35714V7.28571H24.5714V5.35714H20.5714ZM22.5714 5.28571H14.8571V9.28571H22.5714V5.28571ZM16.8571 7.28571V5.35714H12.8571V7.28571H16.8571ZM16.8571 5.35714C16.8571 2.48472 14.5153 0.142855 11.6429 0.142855V4.14285C12.3061 4.14285 12.8571 4.69385 12.8571 5.35714H16.8571ZM11.6429 0.142855H10.3571V4.14285H11.6429V0.142855ZM10.3571 0.142855C7.48472 0.142855 5.14286 2.48472 5.14286 5.35714H9.14286C9.14286 4.69385 9.69386 4.14285 10.3571 4.14285V0.142855ZM5.14286 5.35714V7.28571H9.14286V5.35714H5.14286ZM7.14286 5.28571H4.57143V9.28571H7.14286V5.28571ZM4.57143 5.28571C2.06061 5.28571 0 7.34632 0 9.85714H4C4 9.55546 4.26975 9.28571 4.57143 9.28571V5.28571ZM0 9.85714V35.5714H4V9.85714H0ZM0 35.5714C0 38.0822 2.06061 40.1429 4.57143 40.1429V36.1429C4.26975 36.1429 4 35.8731 4 35.5714H0ZM4.57143 40.1429H32.8571V36.1429H4.57143V40.1429ZM32.8571 40.1429C35.368 40.1429 37.4286 38.0822 37.4286 35.5714H33.4286C33.4286 35.8731 33.1588 36.1429 32.8571 36.1429V40.1429ZM37.4286 35.5714V9.85714H33.4286V35.5714H37.4286Z" fill="white"/>
</svg>
