<svg width="22" height="21" viewBox="0 0 22 21" fill="none" xmlns="http://www.w3.org/2000/svg">
<path d="M12.5714 17.0234C12.5714 17.2444 12.3996 17.4286 12.1786 17.4286H9.82143C9.60045 17.4286 9.42857 17.2444 9.42857 17.0234V14.6908C9.42857 14.4699 9.60045 14.2857 9.82143 14.2857H12.1786C12.3996 14.2857 12.5714 14.4699 12.5714 14.6908V17.0234ZM12.5469 12.4319C12.5346 12.5915 12.3504 12.7143 12.1295 12.7143H9.85826C9.625 12.7143 9.44085 12.5915 9.44085 12.4319L9.23214 6.82143C9.23214 6.74777 9.26897 6.625 9.35491 6.56362C9.42857 6.50223 9.53906 6.42857 9.64955 6.42857H12.3504C12.4609 6.42857 12.5714 6.50223 12.6451 6.56362C12.731 6.625 12.7679 6.72321 12.7679 6.79688L12.5469 12.4319ZM12.375 0.965401C12.1049 0.462053 11.577 0.142856 11 0.142856C10.423 0.142856 9.89509 0.462053 9.625 0.965401L0.196429 18.2511C-0.0736607 18.7299 -0.0613839 19.3192 0.220982 19.798C0.503348 20.2768 1.01897 20.5714 1.57143 20.5714H20.4286C20.981 20.5714 21.4967 20.2768 21.779 19.798C22.0614 19.3192 22.0737 18.7299 21.8036 18.2511L12.375 0.965401Z" fill="#FE0760"/>
</svg>
