<svg width="28" height="35" viewBox="0 0 28 35" fill="none" xmlns="http://www.w3.org/2000/svg">
<path d="M27.0703 21.5078C26.3672 23.2891 25.4297 24.6484 24.2578 25.5859C23.0859 26.4766 21.9141 26.9453 20.7422 26.9922C19.6172 27.0391 18.5156 26.9453 17.4375 26.7109C16.4062 26.4766 15.5625 26.1719 14.9062 25.7969L13.9219 25.3047C12.4688 28.2109 10.5938 30.5078 8.29688 32.1953C6.04688 33.8828 3.58594 34.7266 0.914062 34.7266C0.351562 34.7266 0.0703125 34.4453 0.0703125 33.8828C0.0703125 33.3203 0.351562 33.0391 0.914062 33.0391C3.16406 33.0391 5.22656 32.3594 7.10156 31C9.02344 29.5938 10.6641 27.6953 12.0234 25.3047C11.1328 25.6328 10.2422 25.8438 9.35156 25.9375C8.50781 26.0312 7.52344 25.9844 6.39844 25.7969C5.32031 25.5625 4.26562 24.9297 3.23438 23.8984C2.20312 22.8203 1.33594 21.3672 0.632812 19.5391C2.08594 18.9297 3.44531 18.5547 4.71094 18.4141C6.02344 18.2734 7.10156 18.3203 7.94531 18.5547C8.83594 18.7891 9.63281 19.1641 10.3359 19.6797C11.0859 20.1484 11.6484 20.6406 12.0234 21.1562C12.4453 21.625 12.8203 22.1406 13.1484 22.7031C13.8516 21.0156 14.3672 19.1406 14.6953 17.0781C14.6016 17.125 14.4844 17.1719 14.3438 17.2188C14.2031 17.2188 13.8984 17.2188 13.4297 17.2188C13.0078 17.2188 12.5625 17.2188 12.0938 17.2188C11.6719 17.1719 11.1562 17.1016 10.5469 17.0078C9.9375 16.9141 9.35156 16.7734 8.78906 16.5859C8.27344 16.3984 7.73438 16.1172 7.17188 15.7422C6.65625 15.3672 6.1875 14.9453 5.76562 14.4766C5.34375 14.0078 4.99219 13.4219 4.71094 12.7188C4.42969 11.9688 4.24219 11.125 4.14844 10.1875C5.83594 9.57812 7.28906 9.34375 8.50781 9.48438C9.72656 9.625 10.7344 10.0234 11.5312 10.6797C12.375 11.3359 13.0312 12.0391 13.5 12.7891C14.0156 13.4922 14.3672 14.1484 14.5547 14.7578L14.9062 15.6016C15.0469 14.0078 15.1172 12.7656 15.1172 11.875C14.9297 11.7344 14.6719 11.5469 14.3438 11.3125C14.0156 11.0312 13.5 10.4688 12.7969 9.625C12.1406 8.78125 11.625 7.9375 11.25 7.09375C10.9219 6.25 10.8047 5.19531 10.8984 3.92969C11.0391 2.66406 11.5547 1.42188 12.4453 0.203125C14.0859 0.8125 15.3516 1.60938 16.2422 2.59375C17.1328 3.57812 17.625 4.58594 17.7188 5.61719C17.8594 6.60156 17.8594 7.5625 17.7188 8.5C17.625 9.4375 17.4375 10.1875 17.1562 10.75L16.8047 11.6641C16.8047 11.7109 16.8047 12.0391 16.8047 12.6484C16.8047 13.2109 16.8047 13.6562 16.8047 13.9844C16.8047 13.8906 16.8516 13.7734 16.9453 13.6328C17.0391 13.4922 17.2266 13.2344 17.5078 12.8594C17.8359 12.4375 18.1641 12.0625 18.4922 11.7344C18.8672 11.3594 19.3359 10.9844 19.8984 10.6094C20.4609 10.2344 21.0469 9.95312 21.6562 9.76562C22.2656 9.57812 22.9688 9.48438 23.7656 9.48438C24.6094 9.48438 25.4766 9.64844 26.3672 9.97656C26.3203 11.7109 25.9453 13.1641 25.2422 14.3359C24.5391 15.5078 23.6953 16.3047 22.7109 16.7266C21.7266 17.1016 20.7422 17.3594 19.7578 17.5C18.8203 17.6406 18.0234 17.6641 17.3672 17.5703L16.3828 17.4297C16.0547 19.3516 15.5859 21.1797 14.9766 22.9141C15.1172 22.7266 15.3281 22.4922 15.6094 22.2109C15.9375 21.9297 16.5469 21.5312 17.4375 21.0156C18.3281 20.4531 19.2188 20.0547 20.1094 19.8203C21 19.5391 22.0781 19.5156 23.3438 19.75C24.6562 19.9844 25.8984 20.5703 27.0703 21.5078Z" fill="#B5E3C2"/>
</svg>
