<svg width="21" height="21" viewBox="0 0 21 21" fill="none" xmlns="http://www.w3.org/2000/svg">
<path d="M16.2857 11.2857C16.2857 11.7545 15.8973 12.1429 15.4286 12.1429H12V15.5714C12 16.0402 11.6116 16.4286 11.1429 16.4286H9.42857C8.95982 16.4286 8.57143 16.0402 8.57143 15.5714V12.1429H5.14286C4.67411 12.1429 4.28571 11.7545 4.28571 11.2857V9.57143C4.28571 9.10268 4.67411 8.71428 5.14286 8.71428H8.57143V5.28571C8.57143 4.81696 8.95982 4.42857 9.42857 4.42857H11.1429C11.6116 4.42857 12 4.81696 12 5.28571V8.71428H15.4286C15.8973 8.71428 16.2857 9.10268 16.2857 9.57143V11.2857ZM20.5714 10.4286C20.5714 4.75 15.9643 0.142856 10.2857 0.142856C4.60714 0.142856 0 4.75 0 10.4286C0 16.1071 4.60714 20.7143 10.2857 20.7143C15.9643 20.7143 20.5714 16.1071 20.5714 10.4286Z" fill="#1A3642"/>
</svg>
