<svg width="96" height="76" viewBox="0 0 96 76" fill="none" xmlns="http://www.w3.org/2000/svg">
<path d="M68.5714 31.4286C68.5714 33.3036 67.0179 34.8571 65.1429 34.8571C51.9643 34.8571 43.6607 38.3393 33.9643 47.0714C31.3929 49.4821 29.0357 52.0536 26.4107 54.4107C25.7143 55.0536 24.9643 55.4286 24 55.4286C22.125 55.4286 20.5714 53.875 20.5714 52C20.5714 51.0357 20.9464 50.2857 21.5893 49.5893C33.9643 35.9286 46.1786 28 65.1429 28C67.0179 28 68.5714 29.5536 68.5714 31.4286ZM96 20.8214C96 16.2679 94.0179 0.571424 87.9643 0.571424C83.4643 0.571424 82.0179 3.08928 79.0714 5.82142C71.625 12.8929 48.2679 8.66071 37.2857 12.3036C22.0714 17.3393 8.51786 29.5 8.51786 46.5357C8.51786 48.4107 8.67857 50.2857 9 52.1071C9.21429 53.1786 10.6071 56.0179 10.6071 56.5C10.6071 59.6071 0 63.9464 0 69.5179C0 70.6429 0.375 70.9643 0.857143 71.875C2.30357 74.3393 3.32143 76 6.69643 76C11.3571 76 14.5714 65.0714 17.25 65.0714C19.3929 65.0714 24.5357 68.4464 27.1071 69.3036C31.9821 70.9643 37.2857 71.8214 42.4286 71.8214C50.5714 71.8214 58.6607 69.6786 65.8929 66.0357C80.7857 58.6429 91.5 47.8214 94.9286 31.1607C95.625 27.7321 96 24.25 96 20.8214Z" fill="#B5E3C2"/>
</svg>
